<?xml version="1.0" standalone="no"?>
<!DOCTYPE svg PUBLIC "-//W3C//DTD SVG 20010904//EN"
 "http://www.w3.org/TR/2001/REC-SVG-20010904/DTD/svg10.dtd">
<svg version="1.0" xmlns="http://www.w3.org/2000/svg"
 width="403.000000pt" height="127.000000pt" viewBox="0 0 403.000000 127.000000"
 preserveAspectRatio="xMidYMid meet">

<g transform="translate(0.000000,127.000000) scale(0.100000,-0.100000)"
fill="#000000" stroke="none">
<path d="M778 784 c-3 -245 -3 -246 -27 -265 -52 -42 -111 -9 -111 61 l0 40
-49 0 c-28 0 -53 -5 -56 -11 -12 -18 5 -96 28 -131 12 -18 38 -43 57 -56 29
-20 45 -23 95 -20 74 5 115 30 144 91 20 40 21 60 21 290 l0 247 -50 0 -49 0
-3 -246z"/>
<path d="M1040 1023 c-37 -14 -74 -49 -91 -87 -16 -35 -19 -67 -19 -227 l0
-185 29 -45 c34 -54 80 -79 146 -79 74 0 129 38 160 112 18 44 22 329 5 390
-13 44 -52 93 -91 113 -27 15 -109 19 -139 8z m110 -113 c18 -18 20 -33 20
-195 0 -162 -2 -177 -20 -195 -27 -27 -66 -25 -95 5 -25 24 -25 27 -25 190 0
163 0 166 25 190 29 30 68 32 95 5z"/>
<path d="M1350 715 l0 -316 53 3 52 3 5 115 c5 110 11 140 29 140 5 0 35 -58
67 -130 l58 -130 58 0 58 0 -24 53 c-13 28 -51 110 -85 180 -34 70 -61 133
-61 139 0 7 31 61 68 122 38 61 72 117 76 124 5 9 -6 12 -46 12 l-53 0 -70
-108 -70 -107 -5 105 -5 105 -52 3 -53 3 0 -316z"/>
<path d="M1775 1017 c-3 -7 -4 -147 -3 -312 l3 -300 53 -3 52 -3 0 315 0 316
-50 0 c-32 0 -52 -5 -55 -13z"/>
<path d="M2023 1005 c-72 -43 -100 -131 -69 -218 19 -52 40 -73 116 -114 86
-48 110 -70 110 -105 0 -34 -31 -68 -63 -68 -40 0 -66 26 -69 73 l-3 42 -52 3
-53 3 0 -42 c0 -100 77 -179 174 -179 94 0 163 62 173 155 10 80 -33 137 -140
191 -77 39 -97 61 -97 106 0 65 57 99 105 64 14 -10 21 -31 25 -73 l5 -58 50
0 50 0 3 40 c2 21 1 54 -3 72 -7 38 -55 97 -96 119 -44 22 -117 18 -166 -11z"/>
<path d="M2360 715 l0 -315 50 0 50 0 0 315 0 315 -50 0 -50 0 0 -315z"/>
<path d="M2550 715 l0 -315 50 0 50 0 0 225 c0 124 4 225 9 225 5 0 26 -25 46
-55 21 -30 41 -55 45 -55 4 0 24 25 44 55 20 30 41 55 46 55 6 0 10 -83 10
-225 l0 -225 50 0 50 0 0 315 0 315 -57 0 -58 0 -39 -60 c-21 -34 -42 -59 -47
-58 -4 2 -25 28 -46 58 -38 55 -39 55 -96 58 l-57 3 0 -316z"/>
<path d="M3115 1011 c-81 -50 -94 -92 -94 -301 -1 -185 9 -223 68 -273 40 -33
68 -41 130 -35 59 6 105 37 131 88 18 35 20 60 20 228 l0 188 -29 45 c-16 27
-43 52 -64 62 -47 23 -124 22 -162 -2z m130 -106 c25 -24 25 -27 25 -190 0
-163 0 -166 -25 -190 -29 -30 -68 -32 -95 -5 -18 18 -20 33 -20 195 0 162 2
177 20 195 27 27 66 25 95 -5z"/>
<path d="M1665 789 c-4 -6 -5 -12 -2 -15 2 -3 7 2 10 11 7 17 1 20 -8 4z"/>
</g>
</svg>
